PathFileType	4	(X/Y/Z)	HSS_squat1.trc
DataRate	CameraRate	NumFrames	NumMarkers	Units	OrigDataRate	OrigDataStartFrame	OrigNumFrames
120.0	120.0	4	44	mm	120.0	1	1088
Frame#	Time		R.Shoulder		Offset		L.Shoulder		R.Elbow		R.Wrist.Radial		R.Wrist		R.Hand		L.Elbow		L.Wrist.Radial		L.Wrist		L.Hand		R.Hip		V.Sacral		L.PSIS		L.Hip		R.Thigh.Upper		R.Thigh.Front		R.Thigh.Rear		X.Shell.Lower.Thigh.Right		R.Knee.Lateral		R.Shank.Upper		R.Shank.Front		R.Shank.Rear		X.Shell.Lower.Shank.Right		R.Ankle.Lateral		R.Heel		R.Toe		L.Thigh.Upper		L.Thigh.Front		L.Thigh.Rear		X.Shell.Lower.Thigh.Left		L.Knee.Lateral		L.Shank.Upper		L.Shank.Front		L.Shank.Rear		X.Shell.Lower.Shank.Left		L.Ankle.Lateral		L.Heel		L.Toe		R.Troc		L.Troc		R.PSIS		L.ASIS		R.ASIS
			X1	Y1	Z1	X2	Y2	Z2	X3	Y3	Z3	X4	Y4	Z4	X5	Y5	Z5	X6	Y6	Z6	X7	Y7	Z7	X8	Y8	Z8	X9	Y9	Z9	X10	Y10	Z10	X11	Y11	Z11	X12	Y12	Z12	X13	Y13	Z13	X14	Y14	Z14	X15	Y15	Z15	X16	Y16	Z16	X17	Y17	Z17	X18	Y18	Z18	X19	Y19	Z19	X20	Y20	Z20	X21	Y21	Z21	X22	Y22	Z22	X23	Y23	Z23	X24	Y24	Z24	X25	Y25	Z25	X26	Y26	Z26	X27	Y27	Z27	X28	Y28	Z28	X29	Y29	Z29	X30	Y30	Z30	X31	Y31	Z31	X32	Y32	Z32	X33	Y33	Z33	X34	Y34	Z34	X35	Y35	Z35	X36	Y36	Z36	X37	Y37	Z37	X38	Y38	Z38	X39	Y39	Z39	X40	Y40	Z40	X41	Y41	Z41	X42	Y42	Z42	X43	Y43	Z43	X44	Y44	Z44

1	0.00000	155.36720	1464.96912	-125.15348	-141.74692	1390.20020	-1.11928	-220.35703	1477.02209	-137.71873	195.14900	1096.85339	-97.90876	172.52466	883.73914	-241.38681	238.39955	874.25372	-209.63329	228.20468	803.73761	-260.42334	-276.46286	1114.78674	-114.19268	-306.30365	901.17352	-225.94899	-236.28838	895.71594	-242.49605	-285.24875	825.85101	-266.12036	121.28315	1032.15918	-150.01839	-33.87651	1012.48065	-37.97812	-73.87083	1018.84540	-41.57602	-176.69159	1030.67810	-163.39839	180.30728	699.03693	-188.47920	167.89708	659.73077	-221.22633	191.80376	661.89337	-164.12335	177.44786	627.32056	-191.10875	171.45062	521.34790	-127.86368	234.21654	378.81232	-106.98019	215.98570	332.38568	-133.59421	224.90132	342.11221	-73.87404	221.27110	300.59848	-96.16460	194.89743	72.42817	-81.99453	149.37915	33.07305	-39.26392	199.55258	31.52543	-237.89995	-220.75143	696.21997	-206.10252	-202.62581	644.60547	-224.10507	-237.91629	662.16101	-175.14909	-228.60477	626.09100	-200.20335	-218.49879	510.35367	-128.95433	-276.74869	315.74432	-88.95920	-262.72485	289.73523	-116.77866	-265.96115	276.23175	-58.01823	-271.65860	245.48575	-80.34806	-241.81401	75.52062	-96.08013	-198.25674	34.68350	-41.57071	-240.90723	32.28666	-241.24434	164.46356	885.08209	-166.01190	-213.15556	893.85236	-172.03111	10.64950	1017.72913	-36.73516	-132.36020	996.75482	-230.57419	91.04604	996.72925	-214.21324
2	0.00833	155.37366	1464.96045	-125.37415	-141.64465	1390.20947	-1.11352	-220.34137	1477.05249	-137.69234	195.15265	1096.86938	-98.14756	172.45422	883.77972	-241.62643	238.23930	874.28607	-210.13715	227.96117	803.77563	-260.94702	-276.44290	1114.77930	-114.23375	-306.17999	901.22809	-226.16653	-236.21817	895.88184	-242.64235	-285.17612	825.92047	-266.30539	121.30246	1032.17188	-150.17044	-33.83789	1012.50012	-38.00385	-73.83261	1018.87720	-41.55909	-176.67262	1030.68286	-163.39682	180.32187	699.01556	-188.49318	167.91859	659.69635	-221.24785	191.80760	661.87604	-164.11555	177.42648	627.29718	-191.14006	171.40665	521.34412	-127.82362	234.23521	378.80777	-106.97106	215.98624	332.38638	-133.57782	224.89349	342.11169	-73.87045	221.26920	300.59647	-96.15113	194.90451	72.42247	-81.99725	149.39212	33.07664	-39.26913	199.55348	31.53389	-237.90059	-220.73843	696.22583	-206.09784	-202.67610	644.60974	-224.15277	-237.90079	662.16022	-175.10400	-228.61073	626.08276	-200.18976	-218.46631	510.33929	-128.97148	-276.72101	315.74271	-88.99303	-262.72675	289.73001	-116.76250	-265.93054	276.23352	-58.02061	-271.62582	245.48901	-80.35838	-241.80537	75.51472	-96.08047	-198.25348	34.71566	-41.56934	-240.92451	32.27539	-241.23112	164.48445	885.07117	-166.05681	-213.18382	893.85406	-171.96735	10.72763	1017.75433	-36.76542	-132.36263	996.75781	-230.59575	91.06083	996.71442	-214.24254
3	0.01667	155.39803	1464.96338	-125.54014	-141.54881	1390.21008	-1.10643	-220.32271	1477.06274	-137.64589	195.12170	1096.87305	-98.55538	172.42087	883.75244	-241.99139	238.09242	874.26807	-210.48436	227.84106	803.84070	-261.30804	-276.42004	1114.76001	-114.24497	-306.01407	901.28717	-226.41794	-236.09625	895.95557	-242.86891	-285.01682	826.02466	-266.59686	121.30479	1032.18591	-150.35074	-33.77635	1012.51202	-38.01724	-73.77399	1018.89801	-41.52459	-176.63716	1030.68457	-163.38196	180.33789	699.00189	-188.47913	167.90002	659.66510	-221.23013	191.80426	661.85034	-164.14363	177.42673	627.26752	-191.12956	171.44051	521.30096	-127.79843	234.22681	378.80090	-106.93490	215.98753	332.39578	-133.55635	224.88271	342.10052	-73.83634	221.28053	300.59534	-96.14691	194.90698	72.43587	-81.99149	149.36722	33.08294	-39.27544	199.54877	31.52069	-237.89973	-220.75015	696.21588	-206.07765	-202.67555	644.60364	-224.08218	-237.88727	662.15186	-175.10039	-228.60992	626.08759	-200.19165	-218.45882	510.34634	-128.98241	-276.69537	315.74500	-88.94982	-262.69971	289.73605	-116.77068	-265.87646	276.23434	-57.99712	-271.60724	245.48154	-80.34544	-241.80553	75.50899	-96.06858	-198.21925	34.69343	-41.60283	-240.91620	32.25444	-241.22827	164.72282	885.40985	-166.00235	-213.20039	893.86017	-171.93758	10.79568	1017.76788	-36.80576	-132.35011	996.74414	-230.62856	91.08750	996.71307	-214.32753
4	0.02500	155.39998	1464.95032	-125.73373	-141.46852	1390.20337	-1.10029	-220.30360	1477.07678	-137.58141	195.09544	1096.87390	-98.93459	172.19167	883.81622	-242.51053	237.94524	874.28955	-210.92349	227.63959	803.89471	-261.76556	-276.34125	1114.71436	-114.28581	-305.82059	901.33197	-226.67877	-235.91409	896.02216	-243.05273	-284.72119	826.14532	-266.97321	121.29885	1032.19360	-150.54727	-33.72351	1012.52441	-38.03609	-73.72467	1018.91943	-41.55299	-176.61571	1030.67358	-163.35504	180.34047	698.97388	-188.50275	167.92557	659.64276	-221.27356	191.81825	661.84894	-164.09303	177.44412	627.24902	-191.08635	171.43268	521.31104	-127.76501	234.23209	378.80038	-106.89280	216.00583	332.38226	-133.53033	224.88414	342.09830	-73.79324	221.27203	300.58893	-96.10091	194.90010	72.43050	-81.99668	149.37900	33.08496	-39.30214	199.54767	31.51500	-237.91911	-220.75795	696.22198	-206.05325	-202.68762	644.60211	-224.09413	-237.88971	662.14728	-175.07664	-228.61267	626.09454	-200.15926	-218.43344	510.33972	-128.95631	-276.67462	315.74844	-88.94448	-262.69531	289.73407	-116.76858	-265.84442	276.24365	-57.97826	-271.58212	245.49477	-80.32967	-241.80682	75.52362	-96.04101	-198.22368	34.70641	-41.57443	-240.93068	32.26190	-241.24380	164.53903	885.40271	-166.11394	-213.19469	893.85236	-171.91022	10.86159	1017.78888	-36.83842	-132.32845	996.73859	-230.60826	91.08163	996.72150	-214.40294
